<?xml version="1.0" standalone="no"?>
<!DOCTYPE svg PUBLIC "-//W3C//DTD SVG 20010904//EN"
 "http://www.w3.org/TR/2001/REC-SVG-20010904/DTD/svg10.dtd">
<svg version="1.0" xmlns="http://www.w3.org/2000/svg"
 width="259.000000pt" height="194.000000pt" viewBox="0 0 259.000000 194.000000"
 preserveAspectRatio="xMidYMid meet">

<g transform="translate(0.000000,194.000000) scale(0.100000,-0.100000)"
fill="#000000" stroke="none">
<path d="M1335 1669 c-59 -6 -146 -16 -195 -23 -136 -18 -278 -40 -336 -52
-64 -13 -73 -18 -84 -44 -7 -16 -10 -36 -7 -44 3 -8 -7 -41 -23 -73 -31 -60
-38 -93 -20 -93 6 0 10 -8 10 -17 0 -9 -3 -13 -7 -10 -7 8 -32 -23 -33 -41 0
-7 5 -10 10 -7 6 3 10 2 10 -4 0 -5 -6 -11 -12 -14 -9 -2 -12 -24 -11 -68 3
-105 7 -133 21 -147 6 -7 12 -30 13 -50 0 -20 2 -88 4 -150 3 -72 1 -111 -6
-107 -5 4 -7 10 -4 15 3 4 0 10 -6 12 -5 2 -15 53 -20 113 -6 60 -13 112 -16
115 -8 8 3 -345 11 -358 4 -7 2 -12 -4 -12 -14 0 -11 -243 2 -256 5 -4 41 -10
81 -13 57 -5 78 -11 97 -29 21 -19 22 -24 10 -32 -8 -5 -29 -10 -46 -10 -16 0
-39 -6 -49 -14 -22 -16 -15 -17 205 -36 253 -21 423 -24 476 -7 27 9 81 19
119 22 39 3 95 12 125 20 66 18 349 81 403 91 34 6 63 24 38 24 -6 0 -11 5
-11 10 0 6 7 10 16 10 15 0 16 10 11 88 -8 114 -22 162 -47 162 -11 0 -24 -10
-31 -21 -7 -13 -7 -19 -1 -15 6 3 13 2 16 -3 3 -5 -1 -12 -10 -15 -22 -8 -24
-8 -24 9 0 28 23 64 44 69 11 2 -22 4 -74 2 -66 -1 -105 -7 -129 -19 -42 -21
-58 -21 -77 -2 -11 10 -11 15 -3 15 9 0 10 89 5 393 -3 215 -10 417 -15 447
-5 30 -13 74 -16 98 -7 40 -25 60 -25 27 0 -18 3 -18 -94 0 -44 8 -81 14 -83
11 -7 -6 70 -33 117 -41 64 -9 80 -15 80 -27 0 -5 -6 -8 -14 -5 -8 3 -31 9
-52 13 -35 6 -37 5 -31 -16 5 -21 5 -21 -14 -4 -15 13 -16 19 -7 25 8 5 5 8
-9 6 -12 0 -19 -5 -16 -11 4 -5 -1 -7 -11 -3 -10 4 -24 7 -32 7 -9 0 -13 3
-11 8 3 4 -18 8 -46 10 -28 2 -54 6 -57 10 -3 4 -12 8 -20 10 -12 3 -13 1 -2
-9 14 -15 17 -43 3 -35 -5 3 -11 -5 -13 -19 -3 -14 0 -26 8 -29 16 -6 23 4 26
38 3 31 20 33 93 11 60 -18 95 -35 95 -47 0 -5 -12 -2 -27 6 -16 7 -46 13 -68
11 -55 -4 -129 -36 -133 -57 -2 -12 2 -16 12 -12 8 3 17 0 22 -7 4 -8 3 -10
-5 -5 -6 4 -13 1 -16 -6 -7 -17 -101 -8 -98 9 8 41 9 83 2 83 -5 0 -9 11 -9
25 0 21 -3 24 -17 16 -10 -5 -22 -10 -28 -11 -19 -4 -50 -19 -42 -19 5 -1 -5
-15 -22 -32 -33 -33 -55 -38 -257 -60 -108 -11 -112 -11 -133 10 -11 11 -19
21 -16 21 3 0 0 6 -7 13 -14 16 -38 18 -55 5 -9 -7 -10 -2 -4 19 9 35 43 44
236 67 77 10 194 24 260 32 66 8 149 18 185 22 60 7 62 8 25 12 -22 3 -67 2
-100 -1z m-45 -110 c0 -5 -5 -7 -11 -4 -6 4 -13 -2 -16 -14 -3 -12 -13 -21
-25 -21 -26 0 -18 21 13 37 30 16 39 16 39 2z m20 -58 c0 -15 -10 -20 -45 -25
-24 -4 -47 -11 -50 -16 -3 -5 -13 -6 -22 -3 -9 4 -14 2 -10 -3 9 -15 -315 -44
-388 -34 -33 4 -49 8 -35 9 23 2 24 3 5 11 -14 6 1 9 50 10 96 1 463 53 493
69 1 0 2 -7 2 -18z m-534 -18 c-3 -19 -46 -32 -46 -14 0 6 8 11 18 11 14 0 15
2 2 10 -12 8 -11 10 7 10 15 0 20 -5 19 -17z m505 -34 c-16 -6 -28 -6 -35 1
-7 7 1 10 25 9 32 0 33 -1 10 -10z m249 -50 c53 -11 53 -11 44 -46 -8 -31 -20
-29 -32 5 -7 19 -20 32 -43 39 -45 15 -31 15 31 2z m-807 -6 c-7 -2 -19 -2
-25 0 -7 3 -2 5 12 5 14 0 19 -2 13 -5z m952 -98 c4 -38 2 -87 -5 -120 -12
-59 -27 -74 -84 -82 -17 -2 -38 -7 -46 -10 -8 -3 -27 -8 -42 -10 -23 -3 -28 0
-28 16 0 15 9 22 35 27 19 3 41 4 50 1 8 -4 17 -2 21 4 3 6 12 8 19 5 8 -3 19
1 25 8 17 22 41 154 34 192 -4 20 -2 34 4 34 5 0 13 -29 17 -65z m32 -67 c-3
-7 -5 -2 -5 12 0 14 2 19 5 13 2 -7 2 -19 0 -25z m-1047 -35 c0 -22 -2 -25
-10 -13 -13 20 -13 40 0 40 6 0 10 -12 10 -27z m1057 -105 c-2 -18 -4 -4 -4
32 0 36 2 50 4 33 2 -18 2 -48 0 -65z m-782 63 c3 -5 1 -12 -5 -16 -5 -3 -10
1 -10 9 0 18 6 21 15 7z m62 -7 c-3 -3 -12 -4 -19 -1 -8 3 -5 6 6 6 11 1 17
-2 13 -5z m-37 -24 c0 -5 -12 -10 -27 -9 l-28 1 25 8 c14 4 26 8 28 9 1 1 2
-3 2 -9z m460 -30 c-7 -4 -9 -13 -6 -19 4 -6 3 -11 -2 -11 -5 0 -15 -13 -22
-30 -12 -29 -40 -42 -40 -18 0 6 -7 3 -15 -8 -14 -19 -14 -18 -15 4 0 25 -3
26 -33 11 l-22 -12 20 23 c11 12 19 25 18 29 -4 12 62 39 96 39 21 0 29 -3 21
-8z m-140 -39 c0 -9 -101 -43 -108 -36 -2 2 88 41 106 44 1 1 2 -3 2 -8z
m-570 -27 c0 -9 -7 -14 -17 -12 -25 5 -28 28 -4 28 12 0 21 -6 21 -16z m233
-4 c17 0 26 -4 22 -10 -4 -6 -11 -8 -16 -5 -5 3 -6 -1 -2 -10 3 -9 9 -13 12
-8 9 13 65 13 73 0 6 -9 8 -9 8 1 0 18 27 15 34 -4 13 -33 6 -40 -40 -39 -28
1 -49 7 -55 16 -7 12 -9 12 -9 -1 0 -12 -16 -15 -75 -17 -67 -1 -75 0 -75 17
0 13 -5 17 -15 14 -8 -4 -15 -1 -15 6 0 10 -3 10 -14 1 -12 -10 -17 -8 -27 11
-11 21 -11 22 4 9 12 -9 17 -10 17 -2 0 18 -31 26 -41 10 -7 -11 -9 -11 -9 2
0 15 12 16 98 13 53 -2 110 -4 125 -4z m324 -77 c-3 -10 -5 -4 -5 12 0 17 2
24 5 18 2 -7 2 -21 0 -30z m0 -85 c-3 -7 -5 -2 -5 12 0 14 2 19 5 13 2 -7 2
-19 0 -25z m-544 -25 c-7 -2 -19 -2 -25 0 -7 3 -2 5 12 5 14 0 19 -2 13 -5z
m183 -35 c-66 -7 -105 -7 -120 0 -16 8 10 10 99 10 l120 -1 -99 -9z m672 -54
c-16 -8 -28 -18 -28 -22 0 -5 -7 -17 -15 -28 -13 -17 -14 -16 -4 14 7 19 21
37 33 42 34 14 43 10 14 -6z m-845 -1 c-7 -2 -21 -2 -30 0 -10 3 -4 5 12 5 17
0 24 -2 18 -5z m987 -21 c0 -5 -7 -17 -15 -28 -14 -18 -14 -17 -4 9 12 27 19
34 19 19z m-747 -9 c-34 -2 -93 -2 -130 0 -37 2 -9 3 62 3 72 0 102 -1 68 -3z
m492 -18 c-44 -19 -105 -29 -105 -17 0 10 75 29 115 30 15 0 12 -3 -10 -13z
m109 -17 c-10 -13 -20 -25 -21 -27 -2 -2 -3 1 -3 7 0 11 27 42 37 42 3 0 -2
-10 -13 -22z m-831 -25 c-7 -2 -19 -2 -25 0 -7 3 -2 5 12 5 14 0 19 -2 13 -5z
m1066 -37 c-11 -9 -100 -15 -94 -6 3 6 27 10 52 10 26 0 44 -2 42 -4z m-442
-32 c-3 -3 -12 -4 -19 -1 -8 3 -5 6 6 6 11 1 17 -2 13 -5z m-724 -29 c-3 -11
2 -15 18 -15 13 0 30 -4 37 -9 19 -12 -6 -21 -41 -14 -22 4 -27 11 -27 35 0
16 4 27 10 23 5 -3 7 -12 3 -20z m742 -5 c-8 -25 -33 -36 -108 -45 -40 -5 -57
-4 -57 4 0 6 17 11 38 11 56 0 115 19 108 35 -3 8 0 16 7 18 17 6 20 1 12 -23z
m685 -49 c0 -34 -6 -65 -14 -77 -14 -18 -15 -18 -26 11 -9 24 -8 31 4 41 13 9
13 16 4 41 -15 39 -4 71 17 53 10 -8 15 -31 15 -69z m-778 37 c-8 -8 -9 -4 -5
13 4 13 8 18 11 10 2 -7 -1 -18 -6 -23z m318 -8 c43 -23 46 -145 4 -191 -21
-23 -36 -25 -27 -2 4 10 2 14 -5 9 -6 -3 -13 -2 -17 4 -8 13 -25 13 -25 0 0
-5 7 -10 15 -10 8 0 15 -4 15 -10 0 -15 -11 -12 -32 7 -20 18 -24 43 -7 43 6
0 9 6 6 14 -3 8 -2 28 3 45 6 21 5 31 -3 35 -9 3 -9 7 1 14 7 5 10 16 6 27 -6
15 -4 17 14 13 12 -4 20 -2 16 3 -7 12 13 11 36 -1z m-143 -16 c-3 -3 -12 -4
-19 -1 -8 3 -5 6 6 6 11 1 17 -2 13 -5z m-50 -20 c-3 -3 -12 -4 -19 -1 -8 3
-5 6 6 6 11 1 17 -2 13 -5z m353 -25 c0 -11 -7 -22 -15 -26 -24 -9 -31 5 -10
21 11 8 15 18 10 26 -5 9 -4 11 3 6 7 -4 12 -16 12 -27z m-1073 15 c-3 -3 -12
-4 -19 -1 -8 3 -5 6 6 6 11 1 17 -2 13 -5z m676 -1 c-7 -2 -19 -2 -25 0 -7 3
-2 5 12 5 14 0 19 -2 13 -5z m-53 -10 c0 -5 -4 -15 -10 -23 -11 -18 -25 -7
-17 15 6 15 27 21 27 8z m-610 -25 c0 -5 -9 -8 -19 -8 -11 0 -22 3 -24 8 -3 4
6 7 19 7 13 0 24 -3 24 -7z m89 -14 c14 -12 -19 -1 -35 12 -18 14 -18 14 6 3
14 -6 27 -13 29 -15z m437 -11 c-8 -8 -36 5 -36 17 0 7 6 7 21 0 11 -7 18 -14
15 -17z m-343 0 c-7 -2 -21 -2 -30 0 -10 3 -4 5 12 5 17 0 24 -2 18 -5z m885
-30 c2 -8 -5 -13 -17 -13 -12 0 -21 6 -21 16 0 18 31 15 38 -3z m-985 0 c-13
-2 -33 -2 -45 0 -13 2 -3 4 22 4 25 0 35 -2 23 -4z m677 -3 c0 -5 -7 -7 -15
-4 -8 4 -15 8 -15 10 0 2 7 4 15 4 8 0 15 -4 15 -10z m-312 -17 c-16 -2 -40
-2 -55 0 -16 2 -3 4 27 4 30 0 43 -2 28 -4z"/>
<path d="M1278 1493 c7 -3 16 -2 19 1 4 3 -2 6 -13 5 -11 0 -14 -3 -6 -6z"/>
<path d="M880 970 c0 -5 7 -10 16 -10 8 0 12 5 9 10 -3 6 -10 10 -16 10 -5 0
-9 -4 -9 -10z"/>
<path d="M1574 472 c-4 -9 -8 -33 -9 -52 -2 -29 2 -36 17 -37 28 -2 51 38 39
69 -12 32 -37 42 -47 20z"/>
<path d="M1485 1660 c-3 -5 3 -10 14 -10 11 0 23 5 26 10 3 6 -3 10 -14 10
-11 0 -23 -4 -26 -10z"/>
<path d="M1565 1660 c11 -5 27 -9 35 -9 9 0 8 4 -5 9 -11 5 -27 9 -35 9 -9 0
-8 -4 5 -9z"/>
<path d="M1473 1555 c0 -11 4 -12 14 -4 7 6 13 13 13 15 0 2 -6 4 -13 4 -8 0
-14 -7 -14 -15z"/>
</g>
</svg>
